<svg version="1" xmlns="http://www.w3.org/2000/svg" width="2993.333" height="2993.333" viewBox="0 0 2245.000000 2245.000000"><path d="M1365.7 1.7c-.4.3-.7 2.1-.7 3.8 0 10.1-20.9 37.6-42.7 56.2-3.1 2.7-8.8 7.5-12.7 10.9-14 12-23.7 27.2-29 45.7-2.7 9.2-3 11.3-4.2 23.7-.3 4.1-.7 7.6-.8 7.7-.1.2-2.4-3.9-5.1-9-10.2-19.3-20.6-33.8-34.5-47.8-5.2-5.3-11.5-11.1-14-13-2.5-1.8-4.7-3.6-5-4-1.3-1.6-16.4-10-23.6-13.2-16.8-7.4-31.8-10.5-53.8-11.2-16.8-.5-40.9-7.9-55-16.9-2.8-1.8-5.6-3.5-6.2-3.9-.8-.4-1 4.2-.9 16.1.3 25.3-2.2 42.4-7.1 49.7-2 2.8-1.8 4.7 2 17 7.8 25.8 20.2 50.9 35.1 71 7.9 10.7 8.9 11.9 20 23 17.4 17.4 39.9 31.9 63 40.4l8 3-13.5.1c-33.8.3-72.8 2.4-100.5 5.6-2.7.3-6.9.7-9.2 1-15.2 1.5-27.8 3.1-27.8 3.4 0 .1-1.3.3-3 .5-2.8.3-9 1.1-14.5 2-8.6 1.3-11.7 1.8-13.5 2.1-1.1.3-3.8.7-6 1-2.2.4-6.9 1.2-10.4 2-3.6.7-6.8 1.1-7.3.8-.4-.3-.8-.1-.8.5 0 .5-.8.8-1.7.6-1-.1-2.8.1-3.9.6-1.2.4-4.2 1-6.5 1.4-2.4.3-5.2.8-6.1 1.1-3 .9-6.3 1.5-10.5 2.1-2.4.3-4.3.8-4.3 1.2 0 .3-1.7.7-3.7.9-2 .1-3.9.6-4.3 1-.3.4-1.4.8-2.5.9-2.6.3-5.9.9-11.5 2.3-2.5.7-5.4 1.4-6.5 1.6-4.3 1.1-5 1.3-5 1.4 0 .1-.7.3-1.5.5-.8.1-3.3.8-5.5 1.4-2.2.6-4.2 1-4.5 1.1-.3 0-3 .7-6 1.6-3 .9-5.9 1.7-6.5 1.9-.5.1-1.8.5-2.7 1-1 .4-2.9.8-4.3.9-1.4 0-2.5.4-2.5.8 0 .5-.7.8-1.6.8-1.4 0-9.5 2.3-13.4 3.8-.8.3-1.7.6-2 .6-1.5.4-18.8 5.9-20.5 6.6-1.7.7-5.4 2-7.5 2.5-.3.1-1.8.7-3.3 1.3-1.6.7-3.1 1.2-3.5 1.2-1.7 0-49.4 18.4-53.4 20.6-1.6.8-2.8 1.2-2.8.8 0-.3-.7 0-1.6.7-.9.7-2.2 1.4-2.9 1.5-.6.1-4.2 1.6-7.9 3.3-3.7 1.7-6.9 3.1-7.2 3.1-.2 0-4.1 1.8-8.7 3.9-4.5 2.1-10.6 4.9-13.4 6.2-2.9 1.3-5.3 2.7-5.3 3.1 0 .5-.7.8-1.5.8-.9 0-6.1 2.3-11.8 5.2-5.6 2.9-10.5 5.1-10.9 5-.5-.1-.8.1-.8.5 0 .5-2.5 1.9-5.5 3.3s-5.5 2.8-5.5 3.2c0 .3-1.4.9-3 1.3-1.7.4-3 1.1-3 1.7 0 .6-.3.8-.7.5-.3-.4-2.1.4-3.9 1.8-1.8 1.4-4 2.5-4.8 2.5-.9 0-1.6.4-1.6 1 0 .5-.6 1-1.3 1-.7 0-2.9 1.1-4.8 2.5-2 1.3-3.9 2.1-4.3 1.8-.3-.4-.6-.1-.6.5 0 .7-.7 1.2-1.5 1.2s-1.5.3-1.5.8c0 .4-1.5 1.4-3.2 2.1-1.8.8-3.9 2.1-4.6 2.8-.7.7-1.9 1.3-2.6 1.3-.8 0-1.9.7-2.6 1.5-2.4 2.9-3.9 1.9-5.5-4-.1-.6-1.2-3-2.3-5.5-4.6-10.1-9.9-28-11.7-39.4-.4-2.1-.9-4.8-1.1-6-.3-1.1-.7-3.5-.9-5.1-.4-3.4-3.2-21.6-3.9-25.5-.3-1.4-.7-4.3-1-6.5-.2-2.2-.7-4.7-1-5.5-.3-.8-.7-3.1-1-5-.5-3.3-.8-5-2.1-11-.3-1.4-.7-4.3-1-6.5-.4-2.2-1-5.4-1.5-7-.5-1.7-1.4-5.5-1.9-8.5-1.1-5.3-1.7-8.1-2.5-11.8-2-8.6-6.9-23.9-9.2-28.3-.8-1.6-1.2-2.9-1-2.9.3 0-.8-2.3-2.4-5-1.7-2.8-3-5.4-3-5.9 0-.4-.8-1.6-1.8-2.7-.9-1-3-3.9-4.6-6.4-2.9-4.4-13.7-15.6-26.8-27.5-3.5-3.3-10.4-11-15.2-17-10.8-13.6-9.4-11.8-14.6-19.5-2.4-3.6-4.8-6.8-5.4-7.2-.7-.5-.7-.8-.1-.8s.6-.3-.1-.8c-.5-.4-4.1-5.4-8-11.2-3.8-5.8-7.3-11-7.9-11.6-.5-.6-2.1-2.6-3.5-4.5-5.4-7.3-10.8-12.1-13.2-11.7-3.8.5-4.6 3.4-6.4 22.3-.7 7.9-1.4 14.1-1.9 17.5-.4 3.3-1.1 9.4-2 18.5-1.9 18.4-2.4 51.9-1.1 62.5.4 3 .9 7.5 1.1 10 .2 2.5.6 5.6.9 7 .3 1.3.8 4.2 1.1 6.5.3 2.2.8 4.8 1.1 5.7.3.9.6 2.5.8 3.5.2 1 .9 3.8 1.6 6.3.7 2.5 1.3 4.9 1.4 5.5.4 1.9 3.8 12 5.1 15 .7 1.6 2.3 5.5 3.6 8.5 4.1 9.8 16 30 18.1 30.8.4.2.8.8.8 1.3 0 1 1 2.3 4.1 5.7.8.9 3 3.7 4.9 6.2 1.9 2.5 3.7 4.7 4 5 .8.7 5.1 6.1 8 10 1.4 1.8 3 3.8 3.5 4.4.6.6 5.9 7 11.8 14.3 5.8 7.2 11.7 14.2 12.9 15.5 1.3 1.3 3.4 3.7 4.8 5.3 3.4 4.1 16.6 15.4 19.6 16.7 1.3.6 2.4 1.5 2.4 1.9 0 .4.9 1.1 2 1.4 1.1.3 2.6 1.2 3.2 1.8.7.7 3.8 2.8 6.8 4.7 3 1.9 5.7 3.7 6 4 .3.4 3.1 2.1 6.3 3.9l5.8 3.3-11.3 7.3c-6.2 4-11.8 7.8-12.5 8.4-.7.6-1.7 1.1-2.3 1.1-.5 0-1 .3-1 .7 0 .5-2.3 2.1-5 3.8-2.8 1.6-5 3.3-5 3.7 0 .4-.5.8-1.1.8-1 0-2.9 1.3-8.6 6-.7.6-1.5 1-1.8 1-.3 0-1.1.5-1.8 1-5 4.3-7.3 6-7.8 6-.3 0-1.5.8-2.7 1.7-5.2 4.5-6.3 5.3-6.8 5.3-.3 0-1.1.6-1.8 1.2-.7.7-2.5 2.2-4 3.3-1.5 1.1-3.6 2.7-4.6 3.5-1.1.8-3.2 2.5-4.7 3.7-1.5 1.2-3.8 3-4.9 4-1.2 1-3.6 2.9-5.4 4.3-1.8 1.4-4.2 3.3-5.4 4.3-1.1 1-3.6 3-5.4 4.5-1.8 1.5-4.8 4-6.6 5.7-1.9 1.6-5.1 4.3-7.2 6-2.1 1.6-6 5.1-8.6 7.6-2.6 2.6-4.8 4.5-4.8 4.3 0-.2-1.3.9-2.9 2.4-5.6 5.3-26.3 24.7-27 25.2-.3.3-2.5 2.6-4.8 5.2-2.4 2.6-4.3 4.5-4.3 4.3 0-.5-6.8 6.5-21.5 22-9.7 10.2-13.5 14.7-13.5 15.6 0 .6-.4.7-1 .4-.5-.3-1-.3-1 .2 0 .4-1.5 2.4-3.3 4.4-8 8.9-9.7 10.9-9.7 11.3 0 .3-1.2 1.8-2.8 3.4-5.2 5.5-8.2 9.2-8.2 10.2 0 .5-.3 1-.7 1-.5 0-3.3 3.2-6.3 7-3 3.9-7 8.7-8.7 10.8-1.8 2-3.3 4.3-3.3 4.9 0 .7-.4 1.3-.8 1.3-.5 0-3 3-5.7 6.7-2.7 3.8-5.5 7.4-6.2 8.1-.7.7-1.3 1.6-1.3 2 0 .4-1 1.9-2.3 3.4-1.2 1.4-2.9 3.6-3.7 4.8-.8 1.2-3 4.2-4.8 6.6-1.7 2.3-3.2 4.8-3.2 5.3 0 .6-.3 1.1-.7 1.1-.5 0-1.9 1.8-3.3 4-1.3 2.2-2.8 4-3.2 4-.4 0-.8.4-.8 1 0 .5-3.8 6.7-8.3 13.7-9.4 14.4-15.2 23.7-18.2 29.1-1.1 2.1-2.3 3.8-2.7 4-.5.2-.8.8-.8 1.3s-1.6 3.3-3.5 6.4c-1.9 3-4 6.5-4.6 7.7-.5 1.3-1.5 3.2-2.2 4.3-2.2 3.5-4.1 7-4.2 7.5-.1.3-1.2 2.3-2.6 4.5-1.3 2.2-2.4 4.2-2.5 4.5-.1 1-2.9 6.5-3.5 7-.9.7-14.9 29.2-14.9 30.2 0 .5-.7 1.6-1.5 2.4-.8.9-1.5 2.4-1.5 3.5 0 1-.5 1.9-1.1 1.9-.5 0-.7.4-.4 1 .3.5.1 1-.4 1-.6 0-1.1.5-1.1 1.1 0 .5-1 3.1-2.1 5.7-5.3 11.7-7.8 17.2-10.4 23.7-1.6 3.8-3.4 7.3-4 7.7-.5.4-.7.8-.3.8.4 0-.6 3.1-2.2 7-1.6 3.8-2.6 7-2.2 7 .4 0 .1.4-.7.9-.8.5-1.5 1.7-1.6 2.8-.1 1-.7 3.1-1.4 4.8-4.1 10.6-5.1 13.2-5.3 14.5-.2.8-.5 1.7-.8 2-.6.5-8.9 24.3-9.5 27.1-.2.9-2 6.8-4 13-4.9 15.3-5.5 17.3-6.1 20.5-.3 1.5-.7 3.1-1 3.6-.3.4-.7 1.6-.9 2.7-.2 1-1.3 5.1-2.5 9.1-1.2 3.9-1.9 7.4-1.6 7.8.3.3.2 1-.3 1.6-.7.9-2.2 6.1-3.6 12.6l-2 8c-.9 3.6-1.8 7.4-1.9 8.5-.1 1.1-.6 3.3-.9 5-.4 1.6-.9 4.1-1.2 5.5-1.8 9.7-4.8 24.3-5.9 28.7-.7 2.9-.9 5-.5 4.7.5-.3.5.6 0 1.9-.8 1.9-2.7 12.8-3.6 20.2-.1 1.1-.5 3.8-.9 6s-.8 5.6-1 7.5c-.3 3-.9 8.2-2.2 17.9-.9 6.9-1.2 10.1-1.8 16.6-.3 3.8-.8 10.1-1.2 14-.3 3.8-.7 9.7-.9 13-.2 3.3-.4 6-.5 6-.6 0-1.3 34.5-1.3 63.2 0 19.4-.3 35.3-.7 35.3-1.6 0-11.6-3.3-12.7-4.2-.7-.6-1.3-.7-1.3-.3 0 .4-.6.3-1.2-.2-2.7-2.1-26.8-10.7-34.3-12.1-8.6-1.8-26.3-.5-39.2 2.8-7.1 1.9-23.3 9.6-27.1 12.9-.9.9-3.7 2.9-6.1 4.6-10.6 7.2-23.6 22.9-26 31.3-1.2 4.1-.5 4.5 9.3 4.8 4.5.1 11.3.5 15.1.9 15.7 1.5 36.7 2.7 48.5 2.9 13.4.2 17.6-.7 28-5.6 8.1-3.9 22.2-12.5 22.8-14.1.2-.4 1-.7 1.8-.7s1.4-.5 1.4-1c0-.6.7-1 1.5-1s1.5-.5 1.5-1c0-.6.7-1 1.5-1s1.5-.4 1.5-.8c0-1.1 13.6-8.2 15.6-8.2 1.1 0 1.5 1.1 1.4 3.7-.1 4.5.7 15.7 1.5 22.8.3 2.7.8 7.2 1 10 .8 8.9 1.4 15.9 1.9 20 .3 2.2.8 6.2 1.1 9 .2 2.7.7 6.1.9 7.5.5 2.8 1.4 9.3 2.2 15.5.3 2.2.7 5.1 1 6.5.5 2.8 1 5.7 1.8 11 .3 1.9.8 4.6 1 6 .3 1.4.7 4.3 1.1 6.4.3 2.1.8 5.1 1.2 6.5.3 1.4.7 3.5.8 4.6.1 1.1.5 2.7.8 3.5.3.8.8 2.8 1 4.5.6 3.4 1.5 7.9 2.3 11.5.3 1.4.8 3.6 1.1 5 .2 1.4.9 4.5 1.4 7 .6 2.5 1.2 5.2 1.4 6 .3 1.3 2.8 11.4 4 16 .2.8.8 3.3 1.3 5.5.8 3.2 4.7 17.4 6.7 24.5 1 3.6 3.4 11.8 4.4 14.8.5 1.8 1 3.3 1 3.5 0 .1.2.9.5 1.7.2.8 1.6 5.3 3.1 10s3 9.4 3.5 10.5c.5 1.1 1.4 3.8 2 6 .6 2.2 1.4 4.7 1.6 5.5.3.8.5 1.6.5 1.7 0 .2.8 2.3 1.9 4.7 1 2.4 1.6 4.7 1.3 5-.4.3-.1.6.5.6.7 0 1.2 1.1 1.2 2.5s.5 2.5 1.1 2.5c.5 0 .8.4.5.8-.3.5.1 2.1.9 3.5.8 1.5 1.4 3 1.3 3.3 0 .6 1.8 5.6 3.8 10.1.8 1.7 1.4 3.4 1.4 3.8 0 .4.6 2.1 1.4 3.8 4.6 10.7 6.8 16.1 7 17.1.2.6 1.3 3.3 2.4 5.9 1.2 2.7 2.2 5.3 2.2 5.8s.4.9 1 .9c.5 0 .9.3.9.7-.1.5 0 1.1.1 1.5.1.5.3 1.1.4 1.5.1.5 1.3 3 2.5 5.8 1.3 2.7 3.7 7.9 5.3 11.5 5.2 11.5 22.1 45.4 24.1 48.2 1 1.6 1.5 2.8 1.1 2.8-.3 0-.2.6.4 1.3 1 1.2 1.7 2.5 8.2 14.2 7.5 13.7 12.5 22 13.2 22.3.4.2.8.9.8 1.5 0 .7 1.8 4 4 7.5 2.2 3.4 4 6.6 4 7.1 0 .4.9 1.6 2 2.6s2 2.2 2 2.7c0 1.4 21.9 35.1 23.2 35.6.5.2.6.8.2 1.3-.3.5-.1.9.4.9s1.7 1.6 2.8 3.5c1 1.9 2.1 3.5 2.4 3.5.3 0 1.4 1.5 2.5 3.2 1 1.8 3.8 5.8 6.2 9 2.4 3.1 4.3 5.9 4.3 6.2 0 .4.9 1.7 2.1 2.9 1.2 1.2 3.1 3.8 4.4 5.7 1.2 1.9 3 4.1 3.9 4.9.9.7 1.6 2 1.6 2.7 0 .8.4 1.4.9 1.4s1.9 1.6 3.1 3.5c1.2 2 2.7 4.1 3.3 4.8.7.7 3 3.5 5.2 6.2 2.1 2.8 4.2 5.2 4.5 5.5.3.3 1.8 2.3 3.5 4.5 1.6 2.1 3.6 4.6 4.5 5.5.8.9 2.6 3.1 4 4.9 1.4 1.9 3.3 4.3 4.3 5.5 1 1.1 3.7 4.2 5.8 6.8 2.2 2.5 5.4 6.2 7.2 8 1.8 1.9 4.3 4.8 5.7 6.5 3.8 4.7 18.7 20.8 25.7 27.9 3.5 3.5 6.3 6.8 6.3 7.3s.4 1.1.9 1.3c.5.1 8.5 7.7 17.8 16.8 14.6 14.2 29.6 28.3 36.9 34.7 1.2 1 4.8 4.1 8 7 7.9 6.9 10.2 8.9 14.7 12.6 2.1 1.8 4.9 4.1 6.1 5.2 1.2 1.1 3.9 3.3 6 5 2.2 1.6 4.4 3.5 5 4 .6.6 4.3 3.5 8.1 6.5 3.9 3 7.2 5.7 7.5 6 .3.3 5 3.9 10.5 8s10.2 7.7 10.5 8c.3.3 5.2 3.9 11 7.9 5.8 4.1 12.2 8.7 14.2 10.3 2 1.5 4.1 2.8 4.6 2.8.4 0 1.7.8 2.8 1.8 2.9 2.7 23.4 16.2 24.4 16.2.6 0 1 .4 1 .8 0 .5 2 1.9 4.5 3.2 2.5 1.3 5 2.9 5.6 3.7.6.7 1.8 1.3 2.5 1.3.8 0 1.4.4 1.4 1 0 .5.4 1 1 1 .5 0 4.5 2.2 8.8 5 4.3 2.7 8.4 5 9 5 .7 0 1.2.4 1.2.8s1.9 1.8 4.3 3c2.3 1.2 6.5 3.6 9.2 5.2 2.8 1.7 6.6 3.8 8.5 4.8 1.9.9 3.7 1.9 4 2.2.8.8 5 3.2 9.5 5.3 2.2 1.1 4.2 2.2 4.5 2.6.3.3 9.1 4.9 19.5 10.1 10.5 5.2 19.2 9.8 19.3 10.2.2.5.9.8 1.5.8.7 0 4.8 1.8 9.1 4s8.4 4 9 4c.7 0 1.7.5 2.4 1.2.6.6 1.7 1.3 2.4 1.4.7.1 4.7 1.8 8.8 3.7 7 3.2 9.5 4.4 18.3 8.1 1.7.7 5.3 2.3 7.9 3.5 2.6 1.1 5 2.1 5.3 2.1.3 0 2.7.9 5.3 2.1 5.7 2.5 6.2 2.8 18.2 7.4 5.2 2 16.5 6.2 25 9.1 8.5 3 16.4 5.9 17.5 6.4 1.1.5 9.4 3.2 18.5 6s17.6 5.5 19 6c2.4.8 13.4 4 15.5 4.4 3.4.8 10.5 2.9 13.6 4.1 2 .8 3.9 1.1 4.2.8.3-.3 1.2-.1 1.9.3.7.5 1.8.9 2.3 1 .6.1 3.7.9 7 1.8s6.9 1.8 8 2c1.1.2 3.8.8 6 1.4 2.2.6 5.1 1.3 6.5 1.6 1.4.3 4.5 1 7 1.6 2.5.6 5.4 1.3 6.5 1.5 1.1.2 7.4 1.6 14 3s13.4 2.8 15 3c1.7.3 4.1.7 5.5 1.1 1.4.3 3.9.7 5.5 1 1.7.3 4.1.7 5.5 1 1.4.2 4.3.7 6.5 1 2.2.3 4.7.8 5.5 1.1.8.3 2.9.7 4.5.9 1.7.2 4.4.6 6 .9 1.7.3 5 .8 7.5 1.1 2.5.3 5.6.8 7 1.1 1.4.2 3.9.6 5.5.8 1.7.2 4.9.6 7.3.9 9.7 1.4 12.9 1.8 17.2 2.2 2.5.2 6.1.6 8 .9 1.9.2 6.2.6 9.5.9 3.3.4 8.3.8 11 1.1 12.2 1.2 24.1 2 43 3.1 16.3 1 96.1 1 111.5 0 5.8-.3 13.9-.8 18-1.1 4.1-.2 10.7-.7 14.5-1 3.9-.3 9.7-.8 13-1 8.1-.5 21-1.5 26.5-2.1 2.5-.2 7-.6 10-.9 5.1-.5 17.5-2 24.5-3 1.7-.2 5.3-.7 8-1.1 2.8-.3 5.9-.8 7-1 1.1-.2 4-.7 6.5-1 2.5-.3 5.4-.8 6.5-1 1.1-.2 3.4-.7 5-.9 1.7-.3 8-1.5 14-2.6 6.1-1.2 12.1-2.3 13.5-2.6 1.9-.3 20.2-4.6 38-8.8.8-.2 6.6-1.7 12.9-3.5 6.2-1.7 12-3.3 13-3.5 5.3-1.1 49.7-15.8 54.8-18.1 1.7-.8 3.3-1.4 3.6-1.4.7 0 26.6-10.2 32.2-12.6 2.2-1 4.2-1.8 4.5-1.8.3-.1 2.1-.9 4-1.8 4.3-2 14.9-6.7 15.5-6.8.4-.1 13.9-6.6 27.5-13.3 3.6-1.8 6.8-3.7 7.2-4.2.4-.6.8-.7.8-.3 0 .4 3.6-1.3 8-3.8 4.4-2.4 8.5-4.4 9-4.4.6 0 1-.4 1-.9s.8-1.1 1.8-1.4c.9-.3 4.9-2.4 8.7-4.6 3.9-2.3 7.7-4.4 8.5-4.8.8-.4 4.5-2.6 8.3-5 3.7-2.4 6.9-4.3 7.2-4.3.5 0 14.5-8.9 18.4-11.7 1.3-1 2.8-1.7 3.3-1.6.4.2.8-.1.8-.6s.8-1.2 1.8-1.5c1-.4 2.7-1.4 3.8-2.4 1.1-.9 5.3-3.9 9.4-6.7 4.1-2.7 8.1-5.5 8.8-6.2.7-.7 1.7-1.3 2.1-1.3.4 0 1.6-.8 2.7-1.8 1-1 6-4.7 10.9-8.2 5-3.5 9.6-7 10.3-7.7.8-.7 3-2.6 5-4 2.1-1.5 6.4-5 9.8-7.8 3.3-2.7 8.2-6.8 10.8-8.9 2.6-2.1 6-5.1 7.6-6.5 1.6-1.4 4.5-4 6.5-5.6 2-1.7 4.7-3.9 6-5.1 1.3-1.2 6.3-5 11.2-8.5 4.8-3.5 9-6.7 9.1-7.1.2-.4.9-.8 1.7-.8.7 0 1.9-.7 2.6-1.6.8-.9 3-2.7 4.9-3.9 1.9-1.3 4.4-3.1 5.6-4.1 1.1-1.1 2.7-2.4 3.6-2.9 2.3-1.5 14-10.8 16-12.8 1-.9 2-1.7 2.3-1.7.2 0 1.5-1 2.8-2.3 4.6-4.2 8.7-7.7 9.2-7.7.2 0 1.7-1.2 3.3-2.7 1.5-1.6 5.9-5.5 9.6-8.8 3.8-3.3 9.6-8.6 12.9-11.7 3.4-3.2 6.5-5.8 6.9-5.8.4 0 .8-.3.8-.8 0-.4 7.6-8.4 16.8-17.8 9.2-9.4 19-19.7 21.7-22.8 2.8-3.2 5.5-6.3 6.2-7 1.9-2.2 13.6-16 17.3-20.6 1.9-2.4 4.6-5.8 6-7.5 1.4-1.6 4.6-5.7 7-9 2.5-3.3 4.7-6.2 5-6.5 2-2 7-9.1 7-9.9 0-.6.4-1.1.8-1.1s1.6-1.3 2.5-3c1-1.6 2.3-3.5 3-4.3.7-.7 1.7-2 2.2-2.9.6-.9 3.4-5.1 6.3-9.3 2.8-4.2 5.2-8.1 5.2-8.6s.4-.9.8-.9 2.5-2.8 4.5-6.3c2.1-3.4 5.6-9.1 7.7-12.6 2.2-3.4 4-6.7 4-7.2s.5-.9 1-.9c.6 0 1-.6 1-1.4 0-.8.6-2.1 1.4-2.9.8-.7 2.6-3.8 4.2-6.8 1.5-3 3.3-6.1 4-6.9.7-.8 1.4-2.2 1.6-3 .2-.8.6-1.7.9-2 .3-.3 3.2-5.5 6.4-11.5 3.1-6.1 6.1-11.5 6.5-12 .5-.6.9-1.3.9-1.8 0-.4 2.5-5.8 5.5-12 11.6-24.2 26.1-58.3 27.5-64.9.1-.4 1.1-2.9 2.2-5.5 1.2-2.7 2.2-5.5 2.4-6.3.2-.8 2-6.2 4-12s3.8-11.2 4-12c.2-.8 1.5-5.2 3-9.8 1.5-4.6 2.8-9.1 3-10 .2-.9.4-1.7.5-1.7.1 0 .3-1.1.6-2.5.2-1.4.9-3.6 1.4-5 1.4-3.7 10.4-40.8 11.5-48 .2-1.4.7-3.6 1-5 1.3-6.1 4-21.7 5.1-28.9.4-2.5.8-5.5 1-6.6.2-1.1.6-3.8.9-6 .3-2.2.7-4.9.9-6 .2-1.1.7-4.9 1.1-8.5.3-3.6.8-7.6 1-9 .3-2.3 1.4-13.1 2-21 2.8-33.2 2.8-91.7 0-123.5-.1-2.2-.6-7.6-1-12-.3-4.4-.8-9.1-1-10.5-.3-1.4-.7-4.5-1-7-.3-2.5-.8-6.1-1-8-.7-5.5-3.6-25.3-4-27.5-.2-1.1-.7-3.6-1-5.5-.6-3.4-3.1-16.5-3.9-20.5-4-20.2-13.5-57.4-18-70.3-.8-2.3-1.6-4.4-1.6-4.7-.4-2.7-10.7-33.3-13.9-41.3-1-2.6-3.1-7.9-4.6-11.7-1.5-3.9-3.4-8.5-4.1-10.3-3.5-8.1-4.8-11.1-7.5-17-1.6-3.5-2.9-6.5-2.9-6.8 0-.3-1.3-3.2-2.9-6.5-1.7-3.2-2.7-5.9-2.4-5.9.3 0 .1-.6-.5-1.3-.5-.6-5.2-9.5-10.4-19.7-12.8-24.8-24.5-45.1-39.7-68.5-1.4-2.2-2.9-4.2-3.3-4.3-.5-.2-.8-.8-.8-1.3 0-.8-7.9-12.8-10.8-16.4-.4-.6-2.3-3.2-4.2-6-1.9-2.7-3.9-5.5-4.5-6.2-2.4-3-3.2-4-5.5-7.3-1.3-1.9-3.5-4.6-4.7-6-1.3-1.4-2.3-2.8-2.3-3.2 0-.3-.6-1.3-1.3-2-.7-.7-4.4-5.1-8.2-9.8-7.4-9.1-15.4-18.8-17-20.6-.5-.6-4.6-5.1-8.9-10-9.7-10.9-47.3-48.4-57.6-57.5-10.6-9.4-16.6-14.6-22.4-19.2-2.1-1.8-4.9-4.2-6.2-5.5-1.3-1.2-2.6-2.2-2.9-2.2-.3 0-4-2.8-8.3-6.2-4.2-3.5-8.1-6.6-8.7-7-.5-.4-3.3-2.6-6.2-4.8-2.9-2.2-5.7-4-6.2-4s-1.1-.4-1.3-.8c-.1-.4-2.5-2.3-5.3-4.2-2.7-1.9-5.2-3.7-5.5-4-.6-.6-26.7-18.1-29.5-19.7-1.1-.7-3.1-1.8-4.5-2.5s-2.7-1.5-3-1.8c-.3-.3-4.3-2.8-9-5.7-31-18.7-75.8-40.7-110-53.9-3.6-1.4-9.2-3.6-12.5-4.9-9.6-3.7-12.9-4.9-14-5.1-.5-.1-4.1-1.4-7.8-2.7-3.7-1.4-7.1-2.6-7.5-2.6-.4-.1-4.7-1.4-9.7-3-22-7.1-64.1-17.9-80-20.5-1.6-.3-4.1-.7-5.5-1-2.2-.5-15.6-2.9-23.2-4.2-1.6-.2-4-.6-5.5-.9-7.3-1.2-9.2-1.4-14.8-2-3.3-.3-7.1-.8-8.5-1-5.2-.8-10.7-1.4-18-2-4.1-.4-8.6-.8-10-1-16.9-2.6-107.5-2.6-125 0-1.4.2-5.9.7-10 1-4.1.3-8.8.8-10.5 1-1.6.2-5.3.6-8.1.9-2.9.3-6.5.7-8 1-1.6.3-5.3.8-8.3 1.1-3 .4-6.3.9-7.5 1.1-1.2.2-4.1.7-6.6 1-5 .7-5.4.8-16 2.9-9.8 1.9-12.9 2.5-16.6 3-1.7.3-4.3.9-5.8 1.5-1.4.5-2.6.7-2.6.5 0-.2-1-.1-2.3.4-1.3.5-4.1 1.2-6.3 1.5-2.1.4-4.7.9-5.6 1.2-.9.3-2.5.6-3.5.8-3.1.7-18.6 4.7-21.8 5.7-5.3 1.6-20.8 6.1-21.9 6.3-1.4.3-26.5 8.5-29.1 9.6-1.1.4-4.2 1.6-7 2.5-12.9 4.6-41.5 16.1-53.5 21.7-3.6 1.7-10.3 4.8-15 6.9-4.7 2.2-9.2 4.4-10 4.8-.8.5-5.5 3-10.5 5.5-7.7 3.9-19.7 10.4-33.6 18.4-2 1.1-4.7 2.6-6 3.4-1.3.7-2.6 1.6-2.9 1.9-.3.3-1.7 1.2-3.2 2-1.6.8-8.3 4.9-15 9.2-6.8 4.3-13.2 8.3-14.2 9-1.1.7-2.7 1.7-3.5 2.4-.9.7-6.3 4.5-12 8.5-14.2 10-30.7 22.2-37.1 27.6-14.1 11.8-17.5 14.8-17.8 15.4-.2.5-.8.8-1.2.8-.5 0-2 1-3.3 2.2-1.3 1.3-4.6 4.3-7.3 6.7-20.1 17.9-47.2 44.9-62.6 62.4-5 5.6-15.2 17.4-22.1 25.7-6.4 7.5-29.2 38.1-35.2 47-3.9 5.8-7.5 11-8.2 11.7-1.3 1.4-11.3 17.2-12.8 20.3-.5 1.1-1.3 2-1.7 2-.5 0-.8.7-.8 1.5s-.3 1.5-.8 1.5c-.4 0-1.6 1.9-2.7 4.1-3.2 6.7-3.9 7.9-4.7 7.9-.5 0-.8.4-.8.9s-2.3 4.9-5.1 9.8c-2.8 4.8-7.8 14-11.1 20.3-3.3 6.3-6.4 12-6.9 12.6-.5.6-.6 1.4-.2 1.7.3.4.1.7-.5.7-.7 0-1.1.3-1 .7.1.5-2.1 5.5-4.9 11.3-2.8 5.8-6.1 12.7-7.3 15.5-1.2 2.7-3 6.8-4 9-1 2.3-4.2 9.9-7 17-2.8 7.2-5.6 13.9-6.1 15-2.6 5.6-19.3 56-20.4 61.6-.2.9-1.3 4.9-2.4 9-4.1 14.3-6 21.6-6.8 25.9-.2 1.4-1 5-1.8 8s-1.7 7.1-2 9c-.3 1.9-1.4 7.8-2.5 13-2.7 13.1-7 40.1-8.4 52.5-.3 2.7-.8 6.9-1.1 9.3-.3 2.3-.7 7.3-1 11-.3 3.7-.7 8.3-1 10.2-2.6 21.6-2.7 111.2 0 124.8.1.9.6 5.5 1 10.2.3 4.7.8 9.6 1 11 .5 3.3 1.3 9.2 2 15.9.4 3 .9 6.3 1.1 7.5.2 1.2.7 4.1 1 6.6.5 4.8.6 4.9 2.4 15 1.4 8 1.6 9.1 3 16 .6 3 1.3 6.6 1.5 8 .3 1.4 1.2 5.6 2 9.5.9 3.8 2.3 10 3.1 13.8.8 3.7 3.7 14.7 6.4 24.5 2.8 9.7 5.2 18.4 5.4 19.2.2.8 1.7 5.3 3.2 10 1.5 4.7 2.8 8.7 2.9 9 .1.3.5 1.8 1 3.5.4 1.6 1.2 3.6 1.8 4.2.5.7.7 1.3.4 1.3-.4 0 .2 2 1.3 4.5s2 4.9 2.1 5.3c.1.4.5 1.7 1 3s.9 2.5.9 2.8c0 .5 8.4 22.2 10.5 26.9.7 1.6 2.6 6.1 4.3 10 7.9 18.8 27.8 59.7 29.4 60.3.4.2.8.8.8 1.4 0 2.7 25.5 45.2 39.9 66.3 6.5 9.6 21.3 30.1 24.8 34.5.7.8 4 5.1 7.5 9.5s6.7 8.5 7.3 9.1c.5.6 2.4 2.8 4 5 1.7 2.1 3.9 4.7 5 5.8 1.1 1.2 3.1 3.4 4.3 5.1 8.2 10.6 38.3 41.9 56.1 58.4 5.8 5.3 12.2 11.3 14.3 13.3 2.1 2 3.8 3.4 3.8 3 0-.3 1.3.9 2.8 2.6 1.6 1.8 3.2 3.2 3.6 3.2.4 0 2 1.4 3.6 3 1.6 1.7 3.2 3 3.5 3 .3 0 1.3.8 2.3 1.7 1 1 3 2.7 4.3 3.8 6.8 5.6 8.8 7.2 11.9 9.5 1.8 1.4 3.9 3.1 4.6 3.7.7.7 1.7 1.3 2.3 1.3.6 0 1.1.4 1.1.9 0 .4 1.9 2.1 4.2 3.6 2.3 1.5 4.7 3.2 5.2 3.7.6.5 3.6 2.7 6.6 4.9 3 2.2 6.3 4.7 7.3 5.5.9.7 2.1 1.4 2.6 1.4.4 0 1.6.9 2.6 2s2.4 2 3.2 2c.7 0 1.3.4 1.3.8s2.2 2.1 5 3.7 5 3.2 5 3.6c0 .4.8.9 1.8 1.3.9.3 3.6 1.8 5.9 3.3 6.9 4.6 30.3 18.7 37.8 22.9 3.9 2.1 8.4 4.7 10 5.6 6.1 3.5 36.3 18.6 46 23 25.2 11.5 30.5 13.6 67.8 27.5 3.7 1.3 7.5 2.6 8.5 2.8.9.2 1.8.4 2 .5.1.2.5.3 1 .4.4.1 6.6 2.1 13.7 4.3 17.5 5.6 42.3 12.3 45.3 12.3 3.4 0 21-14 35.2-28 13.8-13.7 20.7-22 30.9-37.5 13.9-21 26.4-50.6 30.7-73 .2-1.1.6-3.1.9-4.5 3.1-14.3 4-25.5 4-48 0-20.9-.5-30.8-2-39-.3-1.4-.7-4.5-1-7-.3-2.5-1-6.1-1.6-8-1.3-4.2-19.4-41.4-21.9-45-1-1.4-2.8-4.5-4.2-7-7.1-13.1-27.8-43.8-40.5-60-19.3-24.7-29.3-36-54.3-61-28.9-28.9-49.8-47.1-80-69.8-8.5-6.5-16.1-12.2-17-12.9-12.1-9.5-81.1-54.3-83.6-54.3-.3 0-1.7-.8-3.2-1.9-2.4-1.6-7.9-4.8-25.7-14.6-11.7-6.5-52.2-26.7-66.5-33.2-27-12.2-58.5-25.3-60.9-25.3-.6 0-1.2-.4-1.5-.8-.7-1.1 34.3 0 41 1.2 1 .2 4.6.7 7.9 1 7.5.8 20.5 2.5 23.2 3 1.1.3 3.8.7 5.9 1 2.2.4 8.4 1.6 13.9 2.7 5.5 1.2 10.9 2.3 12 2.5 11.9 2.3 39.1 9.9 59 16.6 47.7 15.9 92.6 36.3 143.4 65.1 28 15.9 59.8 36.2 87.1 55.5 20.3 14.4 62.5 46.5 66 50.2.3.3 2.8 2.3 5.5 4.5 6.4 5.1 9.4 7.6 11.5 9.5.9.8 4.5 4 8.1 7 3.5 3 6.6 5.7 6.9 6 .3.3 2.3 2 4.5 3.9 10.9 9.2 34 30.7 46 42.9l8.3 8.3 6.3-6.7c15.7-16.5 38.1-38.4 54.8-53.4 4.6-4.1 8.9-8 9.5-8.5.6-.6 5.6-4.9 11.1-9.5 5.5-4.7 10.2-8.7 10.5-9 .3-.3 4.1-3.5 8.5-7 4.4-3.6 8.5-6.9 9.1-7.5 3.5-3.1 27.5-21.4 39.7-30.3 14-10.1 55.4-38.2 56.3-38.2.3 0 3.5-2 7.2-4.3 29.4-19.1 77.6-44.1 113.2-58.8 8-3.3 15.4-6.4 16.5-6.9 28.4-12.4 89.7-29.6 123-34.5 1.1-.2 3.4-.6 5-.9 1.7-.3 5.5-.8 8.5-1.1 3-.4 6.2-.8 7-1 .8-.2 4.7-.7 8.5-1 3.9-.4 7.7-.8 8.5-1 1.4-.4 12.5-1 33.9-2 5.1-.2 9.2-.2 9 0-.3.2-4.2 1.3-8.9 2.5-31.4 8-59.2 20.5-108.6 49-9.5 5.5-40.3 25.6-56.9 37.1-28 19.5-82.7 62.9-108.5 86.2-2.6 2.3-6.2 5.5-8.1 7.2-16.5 14.3-63.5 60.2-78.9 77-42.3 46-69.6 82.5-85 113.5-10 20.1-13.4 33.4-13.4 53.5-.1 15.4.4 21 2.9 33 6.9 33.8 26 72.5 55.8 113.5 7.2 9.9 22.8 29.4 29.2 36.6 18 20.2 17.3 19.4 19 19.4.7 0 5.5-1.1 10.6-2.5 5.1-1.3 9.4-2.3 9.7-2.1.3.3-7.9 3.4-11.3 4.2-.5.2-7.5 2.6-15.5 5.4-8 2.7-14.5 4.9-14.5 4.8 0 0-3 .9-6.6 2.1-3.6 1.2-7.5 2.4-8.7 2.6-1.2.3-3.1.7-4.2.9-1.1.3-2.5.8-3 1.1-.5.3-1.9.8-2.9 1-1.1.2-5.4 1.3-9.6 2.5-4.2 1.2-8.4 2.3-9.3 2.5-.9.2-8.2 1.9-16.2 3.8-14.3 3.5-25.1 5.8-28 6.2-.8.1-2.8.5-4.5.8-5.4 1.3-21.2 4.1-29 5.2-2.2.3-6.5 1-9.5 1.5s-8.1 1.2-11.3 1.5c-3.2.4-6.7.8-7.8 1-1.1.2-5 .7-8.7 1-3.7.4-7.8.8-9.2 1-5.1.8-18.9 1.9-38.5 3.1-24.7 1.6-94.6 1-113.5-1.1-1.9-.2-6.9-.6-11-.9-4.1-.4-8.8-.8-10.5-1-1.6-.2-5.9-.7-9.5-1.1-3.6-.3-7.6-.8-9-1-1.4-.2-4.7-.7-7.5-1-2.7-.3-7.9-1-11.5-1.6-3.6-.6-7.6-1.2-9-1.4-5-.7-27.3-4.6-33.5-5.9-21.4-4.4-49.8-11.3-66.5-16.2-4.7-1.4-9.3-2.7-10.2-2.9-2.9-.6-34.4-11.1-46.3-15.3-13.6-4.9-41.8-16.3-50.3-20.2-3.5-1.7-6.5-3-6.7-3-2.5 0-53.4-25.8-69.3-35.1-4.5-2.7-8.5-4.9-8.8-4.9-.2 0-2.8-1.6-5.7-3.5-2.8-1.9-5.7-3.5-6.4-3.5-.6 0-1.3-.3-1.5-.8-.4-.9-13.6-9.2-14.8-9.2-.4 0-1-.3-1.2-.8-.5-1.1-8.3-6.2-9.6-6.2-.7 0-1.2-.4-1.2-.9 0-.6-1.1-1.6-2.4-2.3-4.4-2.4-26.6-17.9-29.4-20.5-.7-.7-2.6-2-4.2-3-1.7-.9-3-2.1-3-2.5 0-.4-.5-.8-1-.8-.6 0-2.3-1.1-3.8-2.5s-4.5-3.8-6.7-5.3c-2.1-1.5-4.7-3.4-5.6-4.2-.9-.8-3.4-2.9-5.5-4.7-5.2-4.2-25.2-21-28.7-24.2-17.8-16-62.7-60.8-62.7-62.7 0-.2-1.5-1.8-3.2-3.6-1.8-1.8-4.9-5.3-6.8-7.6-1.9-2.4-4.6-5.6-6-7.1-1.4-1.5-3.8-4.4-5.5-6.5-3.3-4.2-5.6-7-8.6-10.4-1-1.2-1.9-2.6-1.9-3.1s-.4-1.1-.8-1.3c-.4-.2-3.4-3.7-6.5-7.8-3.2-4.1-6.9-8.8-8.2-10.5-1.4-1.6-2.5-3.3-2.5-3.7 0-.5-1.2-2.2-2.6-3.8-1.5-1.6-3.2-3.8-3.8-4.8-.6-1.1-5.7-8.6-11.2-16.9-9.5-14-24.6-38.3-31.7-51.1-10.2-18.5-21.7-41.1-21.7-42.8 0-.8-.4-1.4-.9-1.4s-1.3-1-1.7-2.3c-.3-1.2-2.4-6-4.6-10.7-2.2-4.7-5.1-11.2-6.5-14.5-1.4-3.3-3.4-7.9-4.4-10.2-1-2.3-1.9-4.5-1.9-4.8 0-.3-.9-2.5-1.9-4.8-1.1-2.4-2.3-5.5-2.6-7-.4-1.5-1.1-3-1.6-3.3-.5-.3-.9-1.5-.9-2.8 0-1.2-.3-2.6-.7-3-.6-.5-2.7-5.9-3.7-9.1-.2-.6-.6-1.7-.9-2.5-1.5-3.9-5.9-16.7-6.2-18-.2-.8-1-3.4-1.9-5.8-.8-2.3-1.5-4.6-1.5-5-.1-.7-2.7-9.9-4.1-14.2-2.3-6.8-4-14.2-3.5-14.9.3-.5.1-1.1-.4-1.3-.7-.2-2.3-6.2-6.7-24.8-.6-2.6-4.4-21.3-4.9-24-.2-1.4-.9-5-1.5-8s-1.3-7.1-1.6-9c-.3-1.9-.7-4.6-1-6-.2-1.4-.8-5.4-1.4-9-.5-3.6-1.2-8.1-1.4-10-.7-4.8-1.7-13.6-2.1-18.5-.2-2.2-.6-6.5-.9-9.5-2.4-20.8-3-37.8-2.9-74 .1-30.7.5-43.2 1.9-56 .3-3 .8-8 1-11 .3-3 .7-7.1.9-9 .2-1.9.6-6 .9-9 .3-3 .8-6.4 1-7.6.2-1.2.7-4.5 1.1-7.5.3-3 .9-6.8 1.2-8.4.3-1.7.7-4.1.8-5.5.2-1.4.4-2.5.5-2.5.1 0 .3-.9.4-2 .6-4.2 2.1-12.4 3.1-17.5.1-.3.5-2.5.9-5 1.1-6.1 1.3-6.7 2.6-12.5.6-2.8 1.3-5.7 1.5-6.5.8-3.6 3.2-13.9 4-17 .3-1.1.7-2.9.9-4 .3-1.1.8-2.5 1.1-3.1.4-.5.8-2 1-3.2.3-2.8 4.1-16.5 6.6-24.1 1-3.2 1.6-6.2 1.4-6.6-.3-.5-.1-1 .3-1.2.6-.2 6.7-17.4 7.8-21.8 0-.3.4-1.2.7-2 .4-.8 1.8-4.9 3.3-9 1.5-4.1 3.1-8.6 3.7-10 .6-1.4 1.1-2.7 1.1-3 .3-1.5 9.1-22.6 9.5-23 .3-.3.7-1.2.9-2 .2-.8 1.5-3.9 2.9-7 3.9-8.6 4.2-9.3 5.3-12 .5-1.4 1.4-3.2 1.9-4 2.2-3.9 6.2-12.6 6.1-13.4-.1-.5.2-1.2.7-1.5.7-.5 7-12.4 13.1-24.6 1.3-2.8 2.8-5.1 3.3-5.3.5-.2.9-1.2.9-2.3 0-1 .4-1.9.9-1.9s1.1-.8 1.4-1.8c.3-.9 2-4 3.6-6.7 1.7-2.8 3.4-5.7 3.8-6.5.4-.8 1.4-2.6 2.3-4 1-1.4 3.6-5.7 6-9.5 6.4-10.4 14.4-22.9 15-23.5.5-.5 5.4-7.8 7.5-11.1 1.5-2.6 7.8-11.3 8.4-11.9.3-.3 1.6-2.1 2.9-4 2-3 1.7-2.8-2 1.2-5.6 6-12.8 14.4-18.3 21.4-1.6 2-3.5 4.2-4 4.8-.6.6-3.6 4.5-6.8 8.6-3.1 4.1-6.2 8.1-6.7 8.7-.6.7-4 5.2-7.5 10-3.6 4.9-6.8 9.2-7.3 9.8-3.3 4.1-16.2 23.5-16.2 24.4 0 .6-.4 1.1-.9 1.1s-1.3.9-1.6 2c-.3 1.1-1.2 2.6-1.9 3.2-.6.7-4.3 6.5-8.1 12.8-3.9 6.3-7.3 11.6-7.7 11.8-.5.2-.8 1.2-.8 2.3 0 1-.3 1.9-.8 1.9-.4 0-1.8 2.1-3.2 4.7-1.3 2.7-2.9 5.1-3.5 5.5-.5.4-.6.8-.1.8s.2.8-.6 1.7c-.9 1-4.6 7.6-8.3 14.8-3.7 7.1-7.2 13.9-7.8 15-.6 1.1-1.2 2.2-1.2 2.5-.1.3-1.7 3.7-3.7 7.7-2 3.9-3.3 7.4-3 7.7.3.3 0 .6-.6.6-.7 0-1.2.4-1.2 1 0 .5-1.5 4.2-3.4 8.2-8.7 18.9-15.3 35.3-14.8 37 .1.5-.2.8-.7.8-.5 0-1.2 1.2-1.6 2.7-.3 1.6-1.3 4.1-2 5.8-1.6 3.6-7.4 20.2-10.5 30-1.2 3.8-2.5 7.7-2.8 8.5-.9 2.6-1.4 4.5-1.5 6.2-.1 1-.4 1.8-.8 1.8s-.9 1.2-1.2 2.8c-.3 1.5-1.7 7-3.2 12.2-2.7 9.7-3.2 11.7-4.1 15.9-.3 1.3-.9 3.2-1.5 4.3-.5 1-.8 1.8-.5 1.8.2 0-.2 2.4-1 5.2-.8 2.9-1.7 6.4-2 7.8-.5 2.6-2.5 12.4-3.1 15-.2.8-.5 2.6-.8 4-.4 2.4-.9 5-2 10.5-1.5 7.4-3.6 19.6-4 23.5-.2 1.9-.6 4.4-.8 5.5-.3 1.1-.8 4.7-1.1 8-.4 3.3-.9 7.3-1.2 9-.3 1.6-.7 4.6-.9 6.5-.7 9.5-1.7 19.7-2 21.9-2.6 16-2.6 103.6 0 122.6.2 1.6.7 6.1 1 10 .4 3.8.8 9 1.1 11.5.2 2.5.7 6.1 1 8 .3 1.9.7 5.1.9 7 .2 1.9.7 5.3 1 7.5.4 2.2.9 5.3 1 7 .2 1.6.4 3 .5 3 .1 0 .3.9.5 2 .1 1.1.6 4.2 1 7 .4 2.7 1.1 5.8 1.6 6.7.7 1.2.6 1.8-.1 1.8s-.8.6-.1 1.7c.5 1 1.2 3.4 1.5 5.3 1 6.3 5.7 28.2 7.6 35.5 1 3.8 1.4 5.3 2.4 10 .3 1.1 1.5 5.4 2.6 9.5 1.2 4.1 2.3 8.2 2.5 9 .2.8.4 1.6.5 1.7.2.2.3.6.4 1 .1.5.6 2.4 1 4.3.5 1.9 1.2 4.1 1.7 5 .4.8 1.1 2.8 1.5 4.5.9 3.6.7 2.9 2.6 9 4.8 14.8 11.7 33.7 17.9 49 .7 1.6 1.3 3.2 1.4 3.5 0 .3.6 1.5 1.3 2.8.7 1.2 1.1 2.2.8 2.2-.2 0 .9 2.7 2.5 6s2.9 6.4 2.9 6.9.9 2.6 1.9 4.8c1.1 2.1 7.4 15 14.2 28.8 6.7 13.7 12.5 25.2 12.8 25.5.3.3 1.4 2.1 2.5 4 4.7 8.9 9 16.5 9.5 17 1 .8 4.2 6.4 4.8 8.3.3.9.9 1.7 1.4 1.7.5 0 .9.7.9 1.5s.4 1.5.8 1.5 1.3 1.2 2 2.7c2.3 5.1 3.7 7.3 4.4 7.3.5 0 .8.4.8.9 0 1.2 6.1 10.5 7.2 10.9.4.2.8.8.8 1.4 0 1.1 6.1 10.1 7.3 10.6.4.2.7.8.7 1.3 0 .6.5 1.5 1 2.2.6.7 3.9 5.1 7.3 9.8 10.2 14.2 10 14 17.5 23.4.4.5 2.6 3.4 4.7 6.2 2.2 2.9 4.3 5.3 4.7 5.3.4 0 .8.4.8 1 0 1 1.6 3 6.5 8.4 1.7 1.8 4.6 5.3 6.7 7.7 4.6 5.6 6.3 7.5 15.1 17.3 8.2 9.1 44.2 45.4 47.2 47.7 1.1.8 3.1 2.8 4.5 4.4l2.5 3-3-2.6c-1.7-1.4-5.7-4.5-9-6.9-3.3-2.4-6.4-4.8-7-5.2-13.6-10.7-18.1-14.4-18.3-15-.2-.4-.8-.8-1.3-.8-1 0-3.6-2-8.5-6.8-1.9-1.7-3.7-3.2-4-3.2-.3 0-4.2-3.2-8.6-7-4.5-3.9-8.5-7-9-7s-.6-.4-.3-1c.3-.5.2-1-.3-1s-2.6-1.5-4.6-3.3c-2-1.7-5.7-5-8.2-7.2-11.7-10.2-22.6-20.7-43.9-42-19.8-19.8-29.2-29.6-42.8-44.9-1.5-1.7-3.6-4-4.6-5.1-2.2-2.4-9.2-10.6-13.4-15.8-1.8-2.1-4.2-4.9-5.4-6.2-1.3-1.3-2.3-2.6-2.3-2.9 0-.3-1.8-2.4-4-4.8s-4.2-5.1-4.6-6.1c-.3-.9-.9-1.7-1.4-1.7-.5 0-1.8-1.5-2.9-3.3-1.1-1.7-3-4.3-4.3-5.7-2.3-2.5-20.4-26.5-24.8-33-1.3-1.9-2.7-3.7-3-4-.5-.4-6-8.4-14.4-21-1.7-2.5-3.4-4.7-3.8-4.8-.4-.2-.8-.7-.8-1.2s-2.7-4.9-6-9.9-6-9.5-6-10-.4-1.1-.8-1.3c-.5-.2-2.8-3.6-5.3-7.6-2.4-4.1-5.4-9-6.7-11-1.2-2-2.8-4.8-3.5-6.2-.6-1.4-1.7-2.9-2.4-3.3-.7-.4-1.3-1.3-1.3-1.9 0-.6-3.1-6.5-6.9-13.2-10.7-18.7-34.8-65.2-35.6-68.6-.1-.3-1.4-3.2-2.9-6.5-15.6-33.7-33.1-78.6-42.2-108-1.4-4.4-2.7-8.7-3-9.5-.3-.8-.5-1.6-.5-1.8.1-.1-.5-1.8-1.3-3.7-.8-1.9-1.3-3.5-1.1-3.5.2 0-.2-1.5-1-3.4-1.4-3.2-2.1-5.9-3.2-11.9-.3-1.5-.9-3-1.4-3.3-.5-.3-.9-1.5-.9-2.7 0-1.2-.9-4.8-2-8s-1.9-6.2-1.8-6.5c.1-.4-.1-1.4-.5-2.2-.3-.8-.8-2.6-1-4-.3-1.4-1.3-5.4-2.2-9-1-3.6-1.8-7.2-2-8-.1-.8-.7-3.3-1.3-5.5-.6-2.2-1.4-5.6-1.7-7.5-.3-1.9-.8-4.3-1.1-5.2-1.1-3.5-2.7-12.7-2.8-15.6-.1-1.2-.4-2.2-.7-2.2-.4 0-.9-1.7-1.2-3.8-.2-2-.7-4.8-1-6.2-.3-1.4-.9-4.3-1.2-6.5-.4-2.2-.9-5.4-1.1-7-.3-1.7-.8-4.1-1-5.5-.3-1.4-.8-4.3-1-6.5-.3-2.2-.7-4.9-1-6-.3-1.1-.7-4.3-1-7-.3-2.8-.7-6.1-1-7.5-.3-1.4-.7-4.1-.9-6-.3-1.9-.7-5.8-1-8.5-.3-2.8-.8-7.3-1.1-10-.6-6.1-1.2-11-1.4-11-.1 0-.3-2.5-.5-5.5s-.6-8.4-.9-12c-1.2-13.8-1.9-26.8-2-34.2-.1-4.3-.3-7.8-.6-7.8s-.4-15.6-.4-34.8c.1-19.1.2-34.7.3-34.7.1 0 .4-5 .6-11 .2-6.1.7-14.4 1-18.5.3-4.1.8-10.2 1-13.5.7-9.2 1.6-18 3-30 .4-2.8.8-6.8 1.1-9 .2-2.2.7-5.6 1-7.5.3-1.9.7-5.1 1-7 .2-1.9.5-4.6.8-6 .2-1.4.7-4.8 1.1-7.5.3-2.8.9-6.4 1.2-8 .3-1.7.7-4.1.8-5.5.2-1.4.4-2.5.5-2.5.2 0 .9-3.7 1.5-8.5.5-3.7 1.2-7.5 1.5-7.5.1 0 .3-.9.5-2 .4-3 1.5-8.4 2.6-13.5 1-4.1 1.3-5.7 2.4-12.5.2-1.1.4-2.1.5-2.3.2-.1.3-.5.4-1 .1-.4.6-2.3 1.1-4.2.4-1.9.9-4.2 1-5 .1-.8.8-3.5 1.5-6 .6-2.5 1.4-5.4 1.6-6.5.2-1.1 1.8-7 3.5-13 1.7-6.1 3.2-12 3.4-13.1.2-1.2.8-3.1 1.4-4.3.7-1.1.9-2.1.7-2.1-.3 0-.1-1.2.5-2.8.6-1.5 1.2-3.4 1.4-4.2 1-4.6 11.6-36.7 16.6-50.5 3.3-8.8 5.9-16.5 5.9-17.2 0-.7.5-1.3 1.1-1.3.6 0 .9-.6.6-1.4-.3-.8-.1-1.6.4-1.8.5-.2 1.1-1.3 1.2-2.6 0-1.2.4-2.2.8-2.2s1-.8 1.3-1.8c.3-.9 2.6-3 5.1-4.6 2.6-1.6 5.2-3.4 5.8-4 .7-.6 3.5-2.7 6.2-4.5 2.8-1.9 5.3-4 5.7-4.5.4-.6.8-.7.8-.3 0 .5.6.2 1.4-.5.8-.7 2.5-2.1 3.8-3.1 1.3-1 5.1-3.9 8.5-6.5 3.4-2.6 7.6-5.8 9.4-7.2 1.8-1.4 6-4.8 9.3-7.5 10.7-9 14-11.7 19.4-15.2 2.8-1.9 5.6-4.2 6.2-5.2.5-.9 1-1.2 1-.8 0 .5.7.2 1.5-.6 2.3-2.4 15.1-10.7 16.4-10.7.6 0 1.1-.5 1.1-1 0-.6.4-1 .9-1 .4 0 4.2-2.3 8.4-5 4.2-2.8 7.9-5 8.3-5 .4 0 1.5-.6 2.3-1.4.9-.7 5-3.1 9.1-5.3 4.1-2.2 8.4-4.5 9.5-5.1 3.4-2 20.5-9.1 20.5-8.5 0 .3.6.1 1.3-.5.7-.6 2.8-1.4 4.7-1.7 1.8-.3 3.7-.8 4.2-1.1.4-.3 1.8-.7 3-.9 1.3-.3 4.3-.9 6.8-1.5 5.6-1.2 9.5-1.9 14-2.6 1.9-.2 4.6-.7 6-.9 1.4-.3 4.8-.7 7.5-1 2.8-.3 6.1-.7 7.5-1 1.4-.3 5.7-.8 9.5-1 3.9-.3 8.8-.7 11-1 2.2-.2 7.6-.7 12-1 4.4-.3 10.7-.7 14-1 3.3-.2 11.2-.7 17.5-1 6.3-.3 15.1-.7 19.5-1 19.6-1.1 27.5-1.6 35-2 23.2-1.2 53-3.7 58.6-4.9 1.3-.3 4.4-.8 6.9-1.1 4.3-.5 7.1-1 11.5-1.9 9.7-2.1 28.1-12.1 38-20.5 8.4-7.2 28.3-28.5 29.4-31.3.2-.6 1.3-2.1 2.3-3.4l2-2.3 2.9 5.9c4.2 8.4 11.2 15.1 20.2 19.4 4.1 2 7.9 3.6 8.4 3.4.4-.1 2.4.2 4.3.6 6.6 1.6 9.5 1.8 28 2 16.9.1 27.3-.5 34-1.9 1.4-.3 4.5-.8 7-1 4.5-.5 8.5-1.2 8.5-1.5 0-.1.9-.3 2-.5 3-.4 6-1.1 16.5-3.6 11.2-2.7 10.1-2.4 12-3.2 2.3-.9 19.4-6.1 20.5-6.2.6-.1 2.1-.7 3.5-1.3 1.4-.6 6.3-2.7 11-4.6 11.5-4.6 28.4-12.7 28.8-13.8.2-.4.9-.8 1.7-.8.7 0 3.1-1.8 5.4-4 7.5-7.3 3.7-10.7-22.4-19.5-7.7-2.6-14.7-4.9-15.5-5.3-.8-.3-1.7-.6-2-.7-.3-.1-1.2-.4-2-.8-2.3-.9-16.4-5.8-17.5-6.1-1-.3-7.1-2.8-11-4.6-1.1-.5-4-1.7-6.5-2.8-2.5-1-6.3-2.6-8.5-3.6-2.3-.9-4.7-1.8-5.5-2-.8-.2-2.2-.6-3-.9-2.2-.9-10.2-2.9-12.7-3.2-1.1-.2-2.9-.6-4-.9-8.1-2.5-31.4-2.2-42.8.4-2.7.7-5.9 1.3-7 1.5-1.1.1-6.3 1.9-11.5 4-19.7 7.6-18 7.2-19.3 5.5-1.6-2-7.4-6-8.7-6-.5 0-1-.5-1-1 0-2-1.6-.9-4.5 3.3-1.6 2.3-3.5 4.9-4.2 5.7-.6.8-4.4 5.5-8.3 10.5-24.8 31.5-48.9 57.2-66.5 70.8-7.1 5.4-28.6 13.6-40 15.2-1.1.2-4 .8-6.5 1.4-4.3.9-11.2 2-17.5 2.7-1.6.1-3 .3-3 .4 0 .2-4.5.7-12 1.4-14.4 1.2-20.3 1.6-31 2.1-6 .2-11 .5-11 .5 0 .1-5.7.2-12.7.4-7.1.1-12.8 0-12.8-.3 0-.4 1.8-1.4 4-2.4 2.2-.9 4.8-2.4 5.7-3.3 1-.9 4.1-3 6.9-4.7 10.1-6.4 18-13.6 29.7-27 2.9-3.3 5.7-6.5 6.2-7.1.6-.6 3.2-3.8 5.9-7.1 2.8-3.3 5.7-6.7 6.5-7.6.9-.9 2.7-3.1 4.1-4.9 1.4-1.8 3-3.8 3.5-4.4.6-.6 3-3.6 5.5-6.6 2.5-3 4.7-5.7 5-6 1.3-1.1 9.8-12.8 12.1-16.5 5.7-9.3 12.4-22.7 14.4-28.5.1-.3.4-1.2.7-2 3.6-9.6 8.1-27.2 9.4-36.5.3-2.8.8-5.9 1-7 2.1-11.4 2-56.3-.1-73-.6-4.3-1.7-16.3-2-21.1-.7-11.5-1.9-19.1-3.2-21-3.2-5-8.7-.1-23.8 21.1-1.1 1.6-2.4 3.3-3 3.9-.5.6-1.6 2.3-2.4 3.8-.8 1.6-1.8 2.8-2.3 2.8-.4 0-.8.5-.8 1.1 0 .6-1.1 2.5-2.5 4.3-3.8 4.6-3.8 4.7-7.3 9.8-1.8 2.5-3.8 5.2-4.4 6-.7.7-3.1 3.6-5.2 6.3-4.6 5.9-13 14.3-24 24-7.9 7-9.2 8.3-11.1 10.7-.6.7-2.7 3.3-4.7 5.8-9.1 11.2-17 30.4-22.5 54-4.4 19.1-9.4 43.4-10.9 53-.8 4.9-2.2 13.1-3 17-.2 1.4-.7 4.1-.9 6-.5 3.5-2.8 13-6 24.5-1.8 6.8-10.6 25.5-14.1 30.1l-2.3 3-22.5-.2c-12.4-.1-23-.5-23.6-.9-.5-.3-1-.2-1 .4 0 .5-1 .8-2.2.5-4.5-1-12.1-.3-23.8 2.1-3 .6-16.3 5.2-19 6.5-1.9 1-3.7 1.8-4 1.8-.7-.1-18.4 8.5-19 9.2-.8.8-11.1 7-11.7 7-.3 0-2.1 1.1-3.9 2.5-1.8 1.4-3.6 2.5-4.1 2.5-.4 0-2.1 1.1-3.6 2.5s-2.7 2.2-2.7 1.8c0-.4-.4-.3-.8.2-.4.6-4.4 3.8-9 7-4.6 3.3-9.8 7.1-11.6 8.5-8.6 6.4-11.2 8.5-12.7 10-.9.8-3.1 2.6-4.9 4-3.6 2.7-15.7 12.9-25.4 21.3-8.1 7.2-8.8 7.4-5.9 2 1.4-2.7 2.4-4.8 2.2-4.8-.1 0 1.6-3.8 3.9-8.4 2.3-4.6 4.2-9 4.2-9.7 0-.7.4-1.4.8-1.6.4-.2 4.3-7.3 8.6-15.8s8.1-15.7 8.5-16c.3-.3 1.8-2.8 3.2-5.5 4.5-8.7 7.9-14.6 17.6-30.5 12.1-19.9 11-18.1 17.1-27.2 2.8-4.3 5.2-8.2 5.2-8.7 0-.4.9-1.6 2-2.6s2-2.4 2-3.2c0-.7.3-1.3.8-1.3.4 0 1.6-1.6 2.6-3.5 1.1-1.9 2.3-3.5 2.8-3.5.4 0 .8-.7.8-1.5s.5-1.5 1-1.5c.6 0 1-.5 1-1.1 0-.6.6-1.7 1.2-2.4 2.6-2.8 3.6-4.2 6.1-8.1 1.3-2.1 3.6-5.3 5.1-6.9 1.4-1.7 2.6-3.3 2.6-3.8 0-.4 1.4-2.1 3-3.9 1.7-1.7 3-3.4 3-3.8 0-.4 1.4-2.3 3-4.1 1.7-1.9 3.8-4.6 4.7-6.2 1-1.5 2.1-2.7 2.5-2.7.4 0 .8-.6.8-1.4 0-.8.4-1.6.8-1.8.5-.2 3-3 5.7-6.3 2.6-3.2 5.3-6.5 5.9-7.2.6-.6 2.1-2.5 3.4-4 6-7.5 13.5-16.3 16.7-19.8 1.7-1.7 6.2-6.7 10-11.1 3.9-4.3 9.4-10.2 12.3-13 2.8-2.9 5.2-5.6 5.3-6.1 0-.4 2.7-3.2 6-6.1 3.2-2.8 5.7-5.2 5.5-5.2-.4 0 9.9-10 23.9-23.4 4.3-4.2 8.3-7.6 8.8-7.6.4 0 .5-.5.2-1-.3-.6-.2-1 .4-1 .6 0 2.3-1.2 3.9-2.8 3.6-3.4 15.5-13.9 19.5-17.2 1.7-1.4 4.6-4 6.5-5.8 1.8-1.7 3.7-3.2 4-3.2.4 0 2.4-1.6 4.6-3.5 2.1-1.9 4.2-3.5 4.8-3.5.5 0 .6-.5.3-1-.3-.6.1-1 .9-1 .9 0 1.6-.4 1.6-.8s1.8-1.9 3.9-3.2c2.1-1.4 3.7-2.8 3.4-3.3-.2-.4.1-.7.6-.7.6 0 1.9-.7 2.8-1.5 2.7-2.2 25.8-19.8 28.4-21.5 5-3.4 12.5-8.9 14.2-10.4.9-.9 2.1-1.6 2.5-1.6.5 0 2-.9 3.3-2 1.2-1.2 3.9-3.1 5.9-4.3 1.9-1.2 4-2.5 4.5-3 .8-.7 13.1-8.9 18.4-12.2.9-.5 4.2-2.7 7.3-4.7 3.2-2.1 6.2-3.8 6.8-3.8.5 0 1-.4 1-.8 0-.5 1.6-1.4 3.5-2.2 1.9-.8 3.5-1.7 3.5-2.1 0-.3 1.3-1.2 3-1.9 1.6-.7 3-1.6 3-2.1s.5-.9 1-.9c.6 0 3.5-1.5 6.6-3.3 6-3.5 10.4-5.9 17.4-9.7 2.5-1.4 4.7-2.7 5-3.1.3-.3 2.1-1.3 4-2.2 1.9-.9 6-3.1 9-4.7 3-1.7 6.1-3 6.8-3 .7 0 1-.5.7-1-.3-.6 0-1 .7-1 1.5 0 12-5.1 12.9-6.3.3-.5.8-.8 1-.7.7.3 6.4-2.4 7-3.3.3-.5.9-.8 1.3-.8.3.1 3.7-1.3 7.4-3 27-12.7 28.3-13.3 29.5-13.1.4.1.7-.3.7-.8s.3-.9.8-.8c.4.1 2.4-.6 4.6-1.5 2.1-.9 4.2-1.7 4.7-1.7s.9-.4.9-1c0-.5.3-.9.8-.8.4.2 2.7-.6 5.2-1.6 2.5-1.1 5-2 5.5-2.2.6-.1 4.4-1.7 8.5-3.4s8-3.3 8.5-3.4c.6-.2 2.4-.8 4-1.5 5.4-2.3 11-4.3 13.3-4.8 1.2-.3 2.2-1 2.2-1.6 0-.6.3-.8.6-.5.3.3 3.5-.5 7.2-1.9s7.2-2.6 7.7-2.7c.6-.1 1.6-.5 2.3-.9.6-.5 1.2-.5 1.2-.1 0 .3.6.2 1.3-.3 1.2-1 8.2-3.6 10.2-3.8.6-.1 2.4-.7 4-1.4 1.7-.7 3.7-1.4 4.5-1.5 1.3-.1 13-3.8 17-5.3.8-.3 2-.7 2.5-.8.6-.1 1.2-.3 1.5-.4.3-.2 1.2-.4 2-.6.8-.2 4.7-1.3 8.5-2.5 3.9-1.2 7.8-2.3 8.8-2.6 3.5-.9 5.3-1.4 10.7-2.9 3-.8 6.7-1.7 8.2-2 1.5-.3 3.8-.9 5.2-1.5 1.5-.5 2.6-.7 2.6-.4 0 .4.7.1 1.5-.6s1.5-1 1.5-.7c0 .3 3.1-.3 6.9-1.3 3.9-1 7.2-1.5 7.5-1.2.4.3.6 0 .6-.7 0-.6.6-1.1 1.3-.9 1 .2 6.4-.8 10.5-1.9.6-.1 2-.5 3-.7.9-.3 1.7-.5 1.7-.6 0-.1 1.4-.3 3-.5 1.7-.2 4.1-.6 5.5-1 1.4-.3 3.6-.8 5-1.1 1.4-.3 3.3-.7 4.3-1 3.1-1 1.8.3-4.5 4.1-3.5 2.2-6.4 4.2-6.6 4.7-.2.4-.7.8-1.2.8-.4 0-2.3 1.2-4 2.7-25.6 21.7-47 52.7-64.6 93.5-4.5 10.3-10.4 26.4-10.4 28.3 0 1.8 38.6 14.4 52 16.9 1.4.3 5 1 8 1.6 3 .6 7.1 1.3 9 1.6 1.9.3 4.6.7 6 1 10.9 1.8 28.2 2.2 39.3.8 23.5-3 38.1-11.6 44.9-26.4 4.7-10 10.5-18.2 32.4-45.5 10.6-13.3 20.2-24.3 19-21.9-.3.6-.7 2.1-1 3.5-.2 1.3-1.6 8.5-3 15.9-2.9 15.2-8.3 48.2-9.2 55.6-.3 2.7-.7 6-.9 7.4-.7 4.2-1.5 9.3-1.9 13-.2 1.9-1 7.5-1.6 12.5-1.3 10.4-1.5 12.3-2.5 22.5-.4 4.1-.9 7.7-1.1 7.9-.1.2 1.7 4 4 8.5 4.4 8.2 10 23.9 11.1 31.1.4 2.2 1.1 5.3 1.5 7 .8 2.9 2.6 16 2.9 21.7.2 4.1 17.7.7 29.8-5.8 14.4-7.8 34.7-23.2 41.7-31.7s13-23.3 15.2-37.2c.3-2.2.8-4.3.9-4.6 2.2-3.5 2.2-52.4.1-63.6-.3-1.2-.7-4.9-1.1-8.2-.3-3.3-.7-6.8-.9-7.8-.2-1-.9-5.4-1.6-9.8-.7-4.4-1.4-8.9-1.6-10-.2-1.1-.7-3.4-1-5-.3-1.7-.9-4.7-1.3-6.8-.5-2-.7-3.7-.5-3.7.1 0 2.4 2.6 4.9 5.7 20.6 25.4 52.3 49.7 89.8 68.7 22.7 11.5 31.2 14.9 38.7 15.2 10.2.5 17.1 1.3 22.8 2.8 2.9.8 5.3 1.4 5.5 1.4 1.4-.1 23.1 6.5 28.2 8.6 1.9.8 3.5 1.1 3.5.6 0-.6-4.3-18.1-9.5-39-11.7-47.1-13.6-51.1-32.4-70.1-18.9-19-42.2-34.9-76.9-52.5-6.9-3.5-12.2-6.4-11.7-6.4.6 0 3.9.9 7.5 2 23.1 7.2 41.1 8 62.5 3s45.9-17.4 65.6-33.2c11-8.8 15.6-13.3 16.4-15.8 2.3-7.5 13.7-24.8 23.7-36.1 4.4-5.1 19.3-21.2 23.1-25.1 3.1-3.2 3.6-4.2 2.7-5.8-1.3-2.4-.8-2.4-6.1-.4-10.3 3.6-31.4.2-49.6-8.1-11.5-5.3-19-6.9-32.3-7-15.4 0-20.5.6-35 4.4-17.7 4.6-32.4 10-50 18.5-3.6 1.7-6.9 3.3-7.3 3.5-.5.2-.1-1.1.8-2.9 16.7-32.3 9.6-81-21-143.5C1375.2 8.2 1370.9 1 1368.4 1c-1.1 0-2.4.3-2.7.7zm-44.2 233.1c10.8 4.1 17.6 12.1 18 21.7.6 11.3-6.3 21.8-18.3 27.7-6.2 3.1-7.4 3.3-16.2 3.2-8 0-10.4-.4-15.1-2.6-16.6-7.6-20.2-24.9-8.2-39.2 8.9-10.6 27.1-15.5 39.8-10.8zm99.6 451.9c.1 2.1.3 4.7.4 5.8 1.3 9.8 2 13.5 4.5 24 8.5 35.5 26.8 72.6 53.9 109 5.4 7.1 10.4 13.7 11.2 14.5.8.8 2.1 2.4 2.9 3.6 6.4 9.1 37.2 40.4 58.1 58.9 23.2 20.6 58.3 46 95.9 69.5 39.4 24.6 80.1 54 102.5 74 2.1 1.9 6.4 5.7 9.5 8.5 8.5 7.6 35.8 35.2 42.6 43 45.1 52 72.9 106.9 79.9 157.5.3 2.5.8 5.8 1.1 7.5 1 5.6 1.1 31 .2 39.5-1.5 14.5-5.6 32-10.1 43.4-1.5 3.9-10.3 21.5-11.9 24.1-5.7 8.9-20.8 29.8-22.8 31.5-.3.3-2.9 3.4-5.9 7-18.3 22.2-53 57.7-88.2 90.1-17.4 16-22.9 21-35.4 31.9-6.6 5.8-12.2 10.8-12.5 11.1-.3.3-3.9 3.4-8 6.8-4.1 3.5-9.1 7.7-11 9.4-5.1 4.7-36.1 30.4-54.5 45.3l-15.9 12.9 2.8-5c28-49 49.2-91.4 67.5-135.1 2.8-6.7 5.1-12.5 5.1-12.9 0-.3.9-2.5 1.9-4.8 7.7-17.1 24.3-69.2 29.7-93.3 3.3-14.9 7.2-36.4 8-44.4.3-3 .8-6.6 1.1-8 .2-1.4.7-12.4.9-24.5.3-19.9-.9-39.3-3-46.3-.3-1-.7-2.8-1-4.2-1.6-9-6.6-23.9-11.4-33.8-6-12.4-25.3-40.7-48.6-71.2-8-10.4-39.1-49.5-41.1-51.6-.5-.6-2.6-3-4.5-5.4-1.9-2.4-3.9-4.8-4.5-5.4-.5-.6-3.5-4.1-6.5-7.6-3-3.6-5.7-6.7-6-7-.3-.3-3-3.4-6-7s-5.7-6.7-6-7c-.3-.3-2.3-2.5-4.4-5-4.3-5-14.4-16.3-22.1-25-2.7-3.1-6.8-7.6-9-10.1-11.4-13-17.2-19.6-19.5-22-1.4-1.5-5.4-6-9-10-3.6-4-7.8-8.7-9.4-10.4-1.5-1.6-4.9-5.4-7.5-8.4-2.5-3-5.5-6.4-6.6-7.5-1.1-1.2-5.1-5.7-9-10.1-3.8-4.4-7.4-8.5-8-9.1-.5-.6-3.2-3.7-6-6.9-2.7-3.2-5.7-6.6-6.5-7.5-8.5-9.2-23.8-29.8-28-37.5-1.8-3.3-5.3-9.1-7.8-12.9-6-9.3-18.2-29.6-18.2-30.2 0-.3-.8-1.8-1.8-3.2-2-2.9-7.6-13-12.4-22.4-1.6-3.2-3.3-6-3.7-6.2-1-.7 0 30 1.4 41.9.2 1.6.7 5.7 1 9 .4 3.3.8 7.1 1 8.5.2 1.4.6 4.7.9 7.5.9 7.6 5.5 32.2 7.3 39 .8 3.3 1.7 6.9 1.9 8 1.9 10.1 11.9 39.1 18.7 54 6.5 14.1 18.3 33.9 23.4 39.3.7.7 1.3 1.7 1.3 2.2 0 1.4 20.2 21.3 28.3 27.8 4.3 3.5 9.8 9.1 12.4 12.5 6.4 8.7 12.9 22.5 15.7 33.8 4.5 17.8 5.5 27.6 5 52.9-.2 11.8-.5 22.8-.8 24.5-.2 1.6-.7 5.5-1.1 8.5-1.1 9.3-3.2 22.2-6.1 37.5-4.5 24-16.1 66.1-26.9 97.4-7 20.7-16.8 46.1-17.6 46.1-.3 0-1.3-3.7-2.3-8.3-5.3-25.4-17.1-62.7-28.6-90.6-13.7-33.2-30.6-63-48.9-85.9-19.4-24.3-41.4-42.5-64.2-53.1-8.9-4.1-22.7-8.8-28.8-9.7-2-.3-3.9-.8-4.2-1-.3-.2-3.5-.6-7-.9-3.5-.4-7.4-.8-8.6-1-3.3-.5-3.4.5-1.3 7.3 1 3.4 1.6 6.2 1.4 6.2-.2 0 .1 1.2.6 2.6 1.5 4 5 24 5.7 33.4 1.4 16.2.7 44.3-1.3 57-7 43.9-20.2 81.1-47.7 134-41.6 80.2-55.3 113.6-56.2 137.2-.5 13.9 2.2 22 10.2 30.9 1.9 2.1 3.2 4.3 2.8 4.9-1.3 2.1-14.1.8-24-2.5-23.1-7.6-44.3-20.4-60.6-36.5-24.7-24.3-34.6-51.7-30.4-83.5 2.5-18.6 8.5-34.1 23.3-60.1 29.3-51.6 57.3-109.8 73.9-153.9.9-2.2 1.9-4.9 2.4-6 2.2-4.9 12.3-34.5 16.3-47.5 3.2-10.5 8.1-28 9.2-33 .9-4.4 1.4-6.8 3-14.5.9-4.4 1.7-8.5 1.9-9 .1-.6.5-3.3.9-6 .4-2.8 1-6.1 1.2-7.5.2-1.4.7-8.1 1-15 .6-11.8.1-16.8-3.1-33-.2-1.3-.7-4.2-1-6.5-.3-2.2-.8-4.7-1-5.5-.5-1.7-1.1-5.7-2-12-.3-2.5-1-7-1.5-10s-1.1-7.3-1.4-9.5c-.3-2.2-1.2-8.7-2-14.5-3.9-27.9-3.9-26.3-1-25.6 1.4.4 4.8 1.7 7.7 3 2.8 1.3 6.3 2.7 7.6 3.1 4.5 1.4 32.2 14.4 46.4 21.8 49.5 25.8 84.3 53.4 102.4 81.3.7 1.1.4-.3-.7-3-7.5-18.2-20.6-68.7-22.5-86.1-.1-1.7-.5-4.1-.9-5.5-.3-1.4-.8-4.8-1.2-7.5-.8-6.3-1.1-8.2-1.7-12.5-.3-1.9-.8-6.7-1.2-10.5-.4-3.9-.9-8.1-1.1-9.5-1.8-10.5-2.6-58.9-1.1-75.5 1.2-14.1 1.5-16 5.2-32.9 1.3-5.7 5.2-16 8.8-23.1 3.6-7.1 6.2-10.1 23.6-27.5 10.8-10.8 24.1-23.4 29.6-28.1 10.9-9.3 28.5-22.9 29.7-22.9.5 0 .9 1.7.9 3.7z"/></svg>